<svg width="267" height="463" viewBox="0 0 267 463" fill="none" xmlns="http://www.w3.org/2000/svg">
<path d="M266.041 308.383C265.081 270.755 257.168 233.416 237.12 201.611C230.501 190.063 223.786 180.968 221.101 168.699C217.36 147.816 228.103 127.222 237.408 108.793C218.942 129.435 210.261 145.121 207.096 159.027C191.844 200.552 201.916 211.908 217.024 232.646C219.949 236.688 221.101 240.201 221.244 243.232C221.196 246.889 219.854 250.498 217.312 253.337C217.216 253.481 217.072 253.577 216.976 253.722C216.352 254.347 215.681 254.973 214.914 255.502L214.722 255.646C209.158 259.544 201.964 259.207 196.784 255.406V255.55C154.482 215.661 212.036 139.395 173.666 64.4769V64.7656C158.175 39.5523 133.906 17.8514 99.7576 0C104.985 4.37866 110.165 9.04602 115.105 13.9058C140.333 40.0816 182.252 100.661 122.396 173.366C108.103 137.374 140.525 108.745 140.525 108.745C50.3091 159.604 -22.7364 241.5 6.56813 341.102C10.0214 355.537 15.8727 369.058 23.5945 381.184C24.0741 382.05 24.5058 382.916 24.9854 383.782L25.1773 383.638C28.2468 388.257 31.6521 392.636 35.2492 396.774C35.2492 396.774 35.5849 397.111 35.7288 397.255C37.5993 399.372 39.5178 401.441 41.5322 403.462C54.0981 417.175 61.5322 427.713 61.5322 437.625V444.458C61.5322 454.177 69.4458 462.165 79.1821 462.165H86.1845C95.8727 462.165 103.834 454.226 103.834 444.458V443.64H114.05V444.41C114.05 454.177 122.012 462.117 131.7 462.117H138.654C148.391 462.117 156.304 454.129 156.304 444.41V443.64H165.225V444.506C165.225 454.226 173.139 462.165 182.827 462.165H189.925C199.614 462.165 207.527 454.226 207.527 444.506V436.807C207.911 427.328 214.961 417.223 226.76 404.28C251.077 380.318 266.185 346.972 266.185 310.115C266.185 309.537 266.137 308.96 266.137 308.383H266.185H266.041ZM179.854 322.818C197.887 322.818 212.515 337.493 212.515 355.585C212.515 373.678 197.887 388.353 179.854 388.353C161.82 388.353 147.192 373.678 147.192 355.585C147.192 337.493 161.82 322.818 179.854 322.818ZM91.4123 311.991C115.393 311.991 134.866 331.527 134.866 355.585C134.866 379.644 115.393 399.18 91.4123 399.18C67.4315 399.18 47.959 379.644 47.959 355.585C47.959 331.527 67.4315 311.991 91.4123 311.991Z" fill="white"/>
<path d="M80.9568 215.661C117.935 207.433 139.134 278.358 139.134 278.358C139.134 278.358 148.247 261.709 147.24 231.058C147.24 231.058 179.278 297.508 225.801 277.636C271.413 258.196 265.801 335.665 252.707 367.711C261.197 350.293 266.089 330.757 266.089 310.067C266.089 309.489 266.041 308.912 266.041 308.334H266.089C265.13 270.707 257.216 233.368 237.168 201.563C230.549 190.014 223.835 180.92 221.149 168.65C217.408 147.768 228.151 127.174 237.456 108.745C218.99 129.387 210.309 145.073 207.144 158.979C191.892 200.504 201.964 211.86 217.072 232.598C219.998 236.64 221.149 240.153 221.293 243.184C221.245 246.841 219.902 250.45 217.36 253.288C217.264 253.433 217.12 253.529 217.024 253.673C216.4 254.299 215.729 254.924 214.962 255.454L214.77 255.598C209.206 259.496 202.012 259.159 196.832 255.358V255.502C154.53 215.613 212.084 139.347 173.715 64.4288V64.7175C158.127 39.5523 133.858 17.8515 99.7098 0C104.938 4.37866 110.117 9.04602 115.058 13.9058C140.285 40.0816 182.204 100.661 122.348 173.366C108.055 137.374 140.477 108.745 140.477 108.745C50.3093 159.604 -22.7363 241.452 6.5683 341.102C-0.002441 261.998 32.7074 226.439 80.9568 215.661Z" fill="#2CE5A7"/>
</svg>
