<svg width="12" height="12" viewBox="0 0 12 12" fill="none" xmlns="http://www.w3.org/2000/svg">
<g id="Frame 1000005141">
<rect x="0.500046" y="0.5" width="11" height="11" rx="5.5" fill="#BCAAE8"/>
<path id="+" d="M3.50005 6.62766C3.2239 6.62766 3.00005 6.4038 3.00005 6.12766V5.72872C3.00005 5.45258 3.2239 5.22872 3.50005 5.22872H5.04792C5.18599 5.22872 5.29792 5.11679 5.29792 4.97872V3.5C5.29792 3.22386 5.52178 3 5.79792 3H6.19685C6.473 3 6.69685 3.22386 6.69685 3.5V4.97872C6.69685 5.11679 6.80878 5.22872 6.94685 5.22872H8.50005C8.77619 5.22872 9.00005 5.45258 9.00005 5.72872V6.12766C9.00005 6.4038 8.77619 6.62766 8.50005 6.62766H6.94685C6.80878 6.62766 6.69685 6.73959 6.69685 6.87766V8.35638C6.69685 8.63252 6.473 8.85638 6.19685 8.85638H5.79792C5.52178 8.85638 5.29792 8.63253 5.29792 8.35638V6.87766C5.29792 6.73959 5.18599 6.62766 5.04792 6.62766H3.50005Z" fill="white"/>
<rect x="0.500046" y="0.5" width="11" height="11" rx="5.5" stroke="#6D43C0"/>
</g>
</svg>
