<svg width="25" height="24" viewBox="0 0 25 24" fill="none" xmlns="http://www.w3.org/2000/svg">
<path d="M17.4699 0H7.53016L0.500046 7.03012V16.9699L7.53016 24H17.4699L24.5 16.9699V7.03012L17.4699 0Z" fill="#A370FF"/>
<path d="M15.7402 4.17606H9.2599L4.67612 8.75985V15.2402L9.2599 19.8239H15.7402L20.324 15.2402V8.75985L15.7402 4.17606Z" fill="#A370FF"/>
<mask id="mask0_1_832" style="mask-type:luminance" maskUnits="userSpaceOnUse" x="4" y="4" width="17" height="16">
<path d="M15.7402 4.17606H9.2599L4.67612 8.75985V15.2402L9.2599 19.8239H15.7402L20.324 15.2402V8.75985L15.7402 4.17606Z" fill="white"/>
</mask>
<g mask="url(#mask0_1_832)">
<path d="M21.1329 3.12682L-9.21056 27.4191L-6.50798 30.7949L23.8354 6.5026L21.1329 3.12682Z" fill="#F8FEFE"/>
<path d="M26.0354 7.06673L-4.30615 31.3662L-3.34074 32.5717L27.0008 8.27219L26.0354 7.06673Z" fill="#F8FEFE"/>
</g>
<path opacity="0.8" d="M20.324 8.75984L24.5 7.03011V16.9699L20.324 15.2402V8.75984Z" fill="#6D43C0"/>
<path d="M0.500046 7.03011L4.67611 8.75984V15.2402L0.500046 16.9699V7.03011Z" fill="#6B3CC3"/>
<path d="M20.324 15.2402L24.5 16.9699L17.4699 24L15.7402 19.8239L20.324 15.2402Z" fill="#6B3CC3"/>
<path opacity="0.8" d="M4.67611 8.75985L9.25989 4.17606L7.53016 0L0.500046 7.03012L4.67611 8.75985Z" fill="#6D43C0"/>
<path opacity="0.5" d="M9.2599 4.17606H15.7402L17.4699 0H7.53017L9.2599 4.17606Z" fill="#7B52DF"/>
<path opacity="0.2" d="M17.4699 0L15.7402 4.17606L20.324 8.75985L24.5 7.03012L17.4699 0Z" fill="#9664FF"/>
<path opacity="0.5" d="M4.67611 15.2402L9.25989 19.8239L7.53016 24L0.500046 16.9699L4.67611 15.2402Z" fill="#7B52DF"/>
<path opacity="0.2" d="M7.53017 24L9.2599 19.8239H15.7402L17.4699 24H7.53017Z" fill="#9664FF"/>
</svg>
